<svg width="35" height="35" xmlns="http://www.w3.org/2000/svg">
 <g id="Layer_1">
  <title>Layer 1</title>
  <path d="m0.11438,3.57843c0.13072,0 0.39216,0 0.91503,0c0.78431,0 1.57084,0.01263 2.35294,-0.13072c0.65562,-0.12016 1.40783,-0.46387 1.96078,-0.65359c0.63046,-0.21632 1.17647,-0.39216 1.69935,-0.52288c0.52288,-0.13072 0.79131,-0.20137 1.04575,-0.26144c0.28448,-0.06716 0.35208,-0.19069 0.52288,-0.26144c0.12077,-0.05002 0.52288,-0.13072 0.78431,-0.26144c0.26144,-0.13072 0.41647,-0.22125 0.65359,-0.39216c0.14997,-0.10809 0.33801,-0.07657 0.52288,-0.26144c0.09243,-0.09243 0.13072,-0.13072 0.26144,-0.13072c0,0 0,0 0,0.13072c0,0.13072 -0.39216,0.39216 -0.78431,0.78431c-0.65359,0.65359 -1.15679,1.0662 -1.69935,1.56863c-0.88426,0.81885 -1.69935,1.30719 -2.61438,1.96078c-0.91503,0.65359 -1.76385,1.27355 -2.87582,1.96078c-0.74593,0.46101 -1.45516,0.75233 -1.96078,1.04575c-0.40764,0.23656 -0.89955,0.54775 -1.30719,0.78431c-0.25281,0.14671 -0.49984,0.45572 -0.78431,0.52288c-0.12722,0.03003 -0.16901,0.16901 -0.26144,0.26144c-0.09243,0.09243 -0.12077,-0.0807 0,-0.13072c0.17079,-0.07074 0.39216,-0.39216 1.04575,-0.65359c0.65359,-0.26144 1.56863,-0.78431 3.00654,-1.43791c1.43791,-0.65359 2.86278,-1.2037 3.66013,-1.56863c1.5452,-0.7072 2.21482,-1.06506 2.87582,-1.30719c0.38815,-0.14218 0.82484,-0.30555 1.17647,-0.52288c0.31451,-0.19438 0.52288,-0.52288 0.91503,-0.78431c0.39216,-0.26144 0.78431,-0.52288 1.17647,-0.78431c0.39216,-0.26144 0.61509,-0.56813 0.91503,-0.78431c0.23712,-0.17091 0.50362,-0.28406 0.65359,-0.39216c0.23712,-0.17091 0.52288,-0.13072 0.78431,-0.26144c0.26144,-0.13072 0.52288,-0.13072 0.65359,-0.13072c0.13072,0 0.26144,0 0.26144,0c0,0 -0.02767,0.09335 -0.39216,0.39216c-0.42889,0.35161 -0.92545,0.63372 -1.43791,0.91503c-0.66816,0.36679 -1.22215,0.57315 -1.96078,1.04575c-0.70504,0.45111 -1.5632,1.05212 -2.48366,1.83007c-0.77976,0.65903 -1.322,1.02419 -2.0915,1.56863c-0.53356,0.3775 -1.20559,0.74823 -1.69935,1.17647c-0.41897,0.36337 -0.81343,0.74823 -1.30719,1.17647c-0.13966,0.12112 -0.50082,0.42099 -1.17647,0.91503c-0.38045,0.27819 -0.78431,0.65359 -1.17647,0.91503c-0.39216,0.26144 -0.61509,0.56813 -0.91503,0.78431c-0.23712,0.17091 -0.54719,0.35197 -0.78431,0.52288c-0.14997,0.10809 -0.2314,0.38866 -0.26144,0.26144c-0.06716,-0.28448 0.61784,-0.43054 1.17647,-0.91503c0.49376,-0.42824 1.40807,-1.09612 2.48366,-1.69935c1.2747,-0.71489 3.06162,-1.31689 5.75163,-2.61438c1.73839,-0.83849 3.14917,-1.67264 4.05229,-2.0915c1.06066,-0.49193 1.84569,-0.88522 2.61438,-1.30719c0.66816,-0.36679 1.35582,-0.70393 1.83006,-1.04575c0.44991,-0.32428 0.89054,-0.68063 1.17647,-0.91503c0.36449,-0.29881 0.61509,-0.43741 0.91503,-0.65359c0.23712,-0.17091 0.54719,-0.22125 0.78432,-0.39216c0.29994,-0.21618 0.507,-0.45666 0.91503,-0.52288c0.12903,-0.02094 0.39216,-0.13072 0.39216,-0.13072c0.13072,0 0.1518,0.15301 -0.26144,0.52288c-0.62368,0.55822 -1.5936,1.14285 -2.48366,1.83007c-0.80811,0.62394 -2.05132,1.51056 -3.66013,2.35294c-1.91691,1.0037 -3.64715,1.85269 -5.22876,2.7451c-1.4265,0.80489 -2.6241,1.55332 -3.66013,2.22222c-1.18787,0.76693 -2.20086,1.72866 -3.26797,2.48366c-0.7695,0.54444 -1.53501,1.09079 -2.22222,1.56863c-0.6258,0.43514 -1.13974,0.82486 -1.56863,1.17647c-0.36449,0.29881 -0.74581,0.82957 -1.04575,1.04575c-0.23712,0.17091 -0.39216,0.26144 -0.39216,0.39216c0,0 0.25102,-0.02196 0.78431,-0.26144c0.64217,-0.28838 1.82532,-0.79404 2.35294,-1.04575c1.42557,-0.6801 3.04003,-1.35673 4.70588,-2.0915c1.87206,-0.82573 3.43486,-1.76712 4.8366,-2.61438c1.21007,-0.73141 2.53094,-1.62069 3.66013,-2.35294c1.09677,-0.71122 2.60848,-1.70888 3.66013,-2.35294c0.65,-0.39808 1.74979,-1.08866 2.48366,-1.56863c0.85443,-0.55881 1.67964,-1.20498 2.61438,-1.83007c1.02511,-0.68551 2.11214,-1.27527 3.13725,-1.96078c0.93474,-0.62508 1.84048,-1.28732 2.35294,-1.56863c0.66816,-0.36679 1.29132,-0.7181 1.69935,-0.78431c0.12903,-0.02094 0.26144,0 0.26144,0c0,0.13072 -0.38148,0.53753 -0.91503,0.91503c-0.7695,0.54444 -1.56701,1.04839 -3.26797,2.0915c-2.35071,1.44156 -4.16345,2.64178 -6.53595,4.31373c-2.07468,1.46207 -3.93138,2.59914 -5.35948,3.52941c-1.57966,1.02901 -2.76675,1.92901 -4.31373,3.00654c-1.45894,1.01621 -2.63502,2.05958 -3.66013,2.7451c-0.93474,0.62508 -1.7336,1.25134 -2.61438,1.83007c-1.09247,0.71782 -2.06615,1.47494 -3.00654,2.0915c-0.63743,0.41792 -1.36253,0.84029 -2.0915,1.43791c-0.57185,0.46881 -1.04575,0.91503 -1.43791,1.30719c-0.26144,0.26144 -0.39216,0.39216 -0.39216,0.52287c0,0 0.15385,0.0856 0.78431,-0.13072c0.82943,-0.28458 1.85279,-0.99063 4.44444,-2.0915c2.6387,-1.12086 5.64545,-2.5613 8.23529,-3.79085c2.90455,-1.37896 5.60785,-2.76863 7.71242,-3.92157c1.94893,-1.06768 3.59745,-1.84722 4.96732,-2.7451c1.24653,-0.81703 2.49338,-1.68404 3.52941,-2.35294c1.18787,-0.76693 1.78625,-1.22911 2.87582,-2.0915c0.88172,-0.69789 1.60289,-0.9899 2.48366,-1.56863c0.54623,-0.35891 1.54657,-1.07458 2.22222,-1.56863c0.76091,-0.55639 1.4441,-1.16835 1.96078,-1.56863c0.66168,-0.5126 0.92783,-0.89208 1.17647,-1.04575c0.1112,-0.06872 0.12722,-0.03003 0,0c-0.56895,0.13431 -1.185,0.5103 -1.96078,1.04575c-0.92545,0.63876 -2.05577,1.49131 -4.18301,2.87582c-1.67233,1.08843 -3.7819,2.49594 -5.75163,3.92157c-1.82186,1.3186 -4.39154,3.34598 -7.05882,5.09804c-1.66772,1.09548 -3.95725,2.30069 -6.27451,3.92157c-1.99246,1.39368 -3.72518,2.83523 -5.4902,4.05229c-1.64267,1.1327 -3.23507,2.13291 -4.70588,3.26797c-1.40756,1.08626 -2.324,1.99107 -3.00654,2.61438c-0.75389,0.68846 -1.43791,1.17647 -1.83007,1.56863c-0.26144,0.26144 -0.52288,0.52288 -0.65359,0.65359c-0.13072,0.13072 -0.1064,0.30163 0.13072,0.13072c0.14997,-0.10809 0.89263,-0.55814 1.69935,-1.04575c1.40174,-0.84726 3.53656,-1.94716 6.53595,-3.52941c3.93101,-2.0737 8.10549,-4.18123 12.15686,-6.27451c3.79171,-1.95912 6.23204,-3.34474 9.01961,-4.8366c2.06168,-1.10338 3.79085,-1.96079 5.22876,-2.87582c1.43791,-0.91503 2.68752,-1.90038 3.79085,-2.7451c0.74846,-0.57303 1.72042,-1.27404 2.35294,-1.69935c0.54239,-0.3647 0.76506,-0.67622 0.91504,-0.78431c0.23712,-0.17091 0.26144,-0.13072 0.13072,-0.13072c-0.65359,0 -1.32687,0.21679 -1.96078,0.52288c-0.94905,0.45824 -1.85496,1.00442 -2.7451,1.56863c-1.34771,0.85424 -3.19495,1.87554 -4.96732,3.13725c-1.89603,1.34974 -3.89443,2.91245 -7.05882,5.22876c-1.81474,1.32838 -4.77292,3.48692 -8.36601,6.01307c-1.9278,1.35536 -4.42373,3.03629 -6.66667,4.57516c-1.94319,1.33321 -4.07293,2.8439 -5.09804,3.52941c-0.93474,0.62508 -1.85347,1.01224 -2.61438,1.56863c-0.67565,0.49405 -1.322,0.89347 -2.0915,1.43791c-0.53356,0.3775 -1.1234,0.85137 -1.43791,1.04575c-0.35163,0.21732 -0.44218,0.25149 -0.39216,0.13072c0.07074,-0.17079 0.50831,-0.41753 1.17647,-0.78431c1.02491,-0.56262 3.43111,-1.63611 6.53595,-3.26797c3.83244,-2.01428 8.26736,-4.12183 12.54902,-6.40523c3.82024,-2.03733 7.28821,-3.85306 9.01961,-4.70588c3.72675,-1.83566 6.29479,-3.10008 8.23529,-4.18301c1.58578,-0.88497 2.72539,-1.72786 3.66013,-2.35294c1.02511,-0.68551 1.58344,-0.89347 2.35294,-1.43791c0.53355,-0.3775 0.89199,-0.84788 1.17647,-0.91503c0.12722,-0.03003 0.13072,0 0.13072,0c-0.39216,0 -1.0644,0.35208 -2.22222,0.91503c-2.2613,1.09949 -4.62291,2.66328 -7.5817,4.44444c-3.32411,2.00108 -6.80182,4.3068 -8.23529,5.22876c-2.62255,1.68672 -4.82643,3.02154 -7.71242,4.96732c-1.56316,1.05391 -3.13725,2.22222 -4.57516,3.13725c-1.43791,0.91503 -2.38034,1.52158 -3.52941,2.22222c-0.80482,0.49073 -1.4635,0.99985 -1.96078,1.30719c-0.55598,0.34361 -1.10647,0.84503 -1.56863,1.30719c-0.46216,0.46216 -0.78431,0.91504 -1.04575,1.17647c-0.26144,0.26144 -0.5455,0.63434 -0.65359,0.78431c-0.17091,0.23713 -0.35387,0.29973 -0.26144,0.39216c0.09243,0.09243 0.23808,-0.16397 0.78431,-0.52288c0.88077,-0.57872 2.7142,-1.61866 5.22876,-3.13725c3.35876,-2.02843 6.9648,-3.84702 9.41177,-5.09804c2.65665,-1.35822 5.11412,-2.71354 7.18954,-3.79085c1.71301,-0.88919 3.00654,-1.56863 4.05229,-2.0915c1.04575,-0.52287 2.10889,-1.01872 3.13725,-1.69935c1.33059,-0.88066 2.58175,-1.87363 3.79085,-2.7451c0.7647,-0.55116 1.62144,-0.96883 2.22222,-1.43791c0.29142,-0.22754 0.40764,-0.36728 0,-0.13072c-0.25281,0.14671 -1.3417,0.72034 -2.35294,1.30719c-1.22293,0.70969 -3.04895,1.89555 -5.49019,3.52941c-3.19501,2.13835 -4.91352,3.58658 -5.88235,4.44444c-2.85832,2.53092 -4.47595,3.75701 -5.88235,5.09804c-1.20413,1.14815 -2.12179,2.06256 -2.7451,2.7451c-0.68846,0.75389 -1.43791,1.56863 -2.0915,2.09151c-0.65359,0.52287 -1.16579,1.06041 -1.69935,1.43791c-0.38475,0.27222 -0.52288,0.52288 -0.52288,0.52288c0,0 0.29646,-0.19809 1.04575,-0.65359c1.51926,-0.92359 3.71829,-2.5943 7.05882,-4.70588c3.71434,-2.34787 6.28362,-3.77413 9.41176,-5.4902c2.35989,-1.29461 4.33755,-2.29952 6.14379,-3.13725c1.59099,-0.7379 2.75701,-1.28048 3.66013,-1.69935c0.79549,-0.36895 1.7166,-0.88305 2.22222,-1.17647c0.40765,-0.23657 0.65359,-0.26144 0.65359,-0.26144c0.13072,0 -0.01785,-0.04082 -0.65359,0.26144c-1.21546,0.57787 -2.4175,1.52439 -4.44444,3.00654c-3.04363,2.22556 -6.27785,4.57092 -9.93464,7.45098c-2.48593,1.9579 -4.89783,3.85219 -6.53595,5.35948c-0.81623,0.75104 -1.57203,1.33176 -1.96078,1.96078c-0.21732,0.35163 -0.26144,0.52288 -0.26144,0.52288c0,0.13072 0.12599,0.11557 0.52287,0c0.51748,-0.15069 1.46605,-0.4712 3.66013,-1.69935c2.9148,-1.63158 6.98575,-3.8293 11.63399,-6.79738c2.78066,-1.77556 3.90021,-2.64369 4.96732,-3.39869c0.38475,-0.27222 0.52287,-0.39216 0.52287,-0.39216c-0.13072,0 -0.40689,0.1749 -0.65359,0.26144c-0.78983,0.27706 -1.61074,1.11344 -3.00653,2.09151c-1.75579,1.23033 -3.64229,2.76615 -5.4902,4.31372c-1.42435,1.19285 -2.12228,1.79553 -3.00654,2.61438c-0.40692,0.37682 -0.52287,0.65359 -0.52287,0.78431c0,0 0.51767,-0.01098 0.78431,-0.13072c1.28433,-0.57675 3.00654,-1.17647 4.96732,-1.83006c1.96078,-0.65359 3.00654,-1.17647 4.05229,-1.43791c0.52288,-0.13072 0.78431,-0.26144 0.78431,-0.26144c-0.26144,0.13072 -0.78431,0.52288 -1.56863,0.91503c-1.04575,0.52287 -2.22222,1.30719 -3.39869,2.0915c-0.78431,0.52288 -2.22222,1.43791 -3.26797,1.96078c-2.09151,1.04575 -4.02246,1.92053 -5.88235,2.48366c-1.03168,0.31237 -3.66013,0.65359 -5.09804,0.65359c-0.91503,0 -2.22222,0 -2.87582,-0.26144c-0.65359,-0.26144 -1.2251,-0.44249 -1.69935,-0.78431c-0.44991,-0.32428 -0.80694,-0.76506 -0.91503,-0.91503c-0.17091,-0.23712 -0.28407,-0.50363 -0.39216,-0.65359c-0.17091,-0.23712 -0.31619,-0.44691 -0.52288,-0.65359c-0.20668,-0.20668 -0.39216,-0.26144 -0.65359,-0.39215c-0.26144,-0.13072 -0.39216,-0.26144 -0.65359,-0.39216c-0.26144,-0.13072 -0.39216,-0.13072 -0.39216,-0.13072c0,-0.13072 0,-0.26144 0,-0.52288c0,-0.39216 0.369,-0.93926 0.91503,-1.43791c0.75389,-0.68847 1.57656,-1.42851 2.35294,-2.0915c1.0567,-0.90237 1.56863,-1.30719 2.0915,-1.83006l0.39216,-0.26144l0.13072,-0.13072l0.13072,0" id="svg_12" stroke-width="3" stroke="#000" fill="none"/>
  <path stroke="#000" d="m4.82026,35.21242c0,0 1.17357,-3.00653 5.28105,-10.02178l6.45461,-11.02397l7.04139,-7.01525l7.62818,-8.01743" id="svg_13" stroke-width="3" fill="none"/>
 </g>

</svg>