<svg width="20" height="20" xmlns="http://www.w3.org/2000/svg">
 <g id="Layer_1">
  <path stroke-width="2" d="m-0.06536,1.30719c0,0 0.13072,0 0.26144,0c0.26144,0 0.52987,-0.07065 0.78431,-0.13072c0.28448,-0.06716 0.35208,-0.19069 0.52288,-0.26144c0.12077,-0.05002 0.26144,0 0.39216,0c0.13072,0 0.13072,-0.13072 0.26144,-0.13072c0,0 0.09065,-0.05997 0.26144,-0.13072c0.12077,-0.05002 0.27139,0.05002 0.39216,0c0.17079,-0.07074 0.26144,-0.13072 0.39216,-0.13072c0.13072,0 0.13072,0 0.26144,0c0.13072,0 0.26144,0 0.39216,0c0.13072,0 0.13072,0 0.26144,0c0,0 0.13072,0 0.26144,0c0.13072,0 0.27139,0.05002 0.39216,0c0.17079,-0.07074 0.28134,-0.03067 0.52288,-0.13072c0.17079,-0.07074 0.39216,0 0.39216,-0.13072c0,-0.13072 -0.28575,-0.04019 -0.52288,0.13072c-0.29994,0.21618 -0.63811,0.54775 -1.04575,0.78431c-0.25281,0.14671 -0.65359,0.26144 -0.91503,0.39216c-0.26144,0.13072 -0.4828,0.19069 -0.65359,0.26144c-0.24154,0.10005 -0.35208,0.19069 -0.52288,0.26144c-0.12077,0.05002 -0.22136,0.05997 -0.39216,0.13072c-0.12077,0.05002 -0.26144,0 -0.39216,0c0,0 -0.13072,0.13072 -0.26144,0.13072c-0.13072,0 -0.26144,0.13072 -0.39216,0.13072c-0.13072,0 -0.26144,0 -0.26144,0c0,0 0,0 0.13072,0c0.26144,0 0.63739,-0.04486 1.30719,-0.26144c0.51282,-0.16582 1.56052,-0.32657 2.35294,-0.39216c0.78164,-0.06469 1.44375,-0.09953 2.22222,-0.26144c0.52768,-0.10975 0.93252,-0.11127 1.56863,-0.26144c0.28448,-0.06716 0.39565,-0.10069 0.52288,-0.13072c0.28448,-0.06716 0.36912,-0.19428 0.65359,-0.26144c0.25444,-0.06007 0.50362,-0.15335 0.65359,-0.26144c0.23712,-0.17091 0.61352,-0.19069 0.78431,-0.26144c0.24154,-0.10005 0.39216,0 0.52288,0c0,0 0.13072,0 0.13072,0c-0.13072,0 -0.40941,-0.03198 -0.91503,0.26144c-0.40764,0.23657 -1.04575,0.52288 -1.83007,0.91503c-0.52288,0.26144 -1.16085,0.55581 -1.96078,0.91503c-0.64217,0.28837 -1.15107,0.58149 -1.69935,0.78431c-0.50549,0.18699 -0.90642,0.41102 -1.17647,0.52288c-0.3819,0.15819 -0.62236,0.3158 -1.04575,0.52288c-0.37134,0.18161 -0.76127,0.19428 -1.04575,0.26144c-0.12722,0.03003 -0.39216,0.13072 -0.52288,0.13072c0,0 -0.13072,0 -0.13072,0c-0.13072,0 -0.39216,0 -0.39216,0c-0.13072,0 -0.13072,0 -0.13072,-0.13072c0,0 -0.02654,-0.03353 0.13072,-0.13072c0.35163,-0.21732 0.91253,-0.27746 1.69935,-0.39216c1.04287,-0.15202 2.35294,-0.26144 3.79085,-0.52288c1.43791,-0.26144 2.88269,-0.49229 3.52941,-0.65359c1.32418,-0.33027 2.22222,-0.65359 2.7451,-0.78431c0.52288,-0.13072 0.91503,-0.13072 1.17647,-0.26144c0.26144,-0.13072 0.78431,-0.26144 1.04575,-0.39216c0.26144,-0.13072 0.39216,-0.13072 0.65359,-0.26144c0,0 0.09064,-0.05997 0.26144,-0.13072c0.12077,-0.05002 0.27139,-0.0807 0.39216,-0.13072c0.17079,-0.07074 0.22136,-0.19069 0.39216,-0.26144c0.12077,-0.05002 0.26144,-0.13072 0.39216,-0.13072c0.13072,0 0.26144,-0.13072 0.39216,-0.13072c0,0 0,0 -0.26144,0c-0.65359,0 -1.18652,0.09561 -1.69935,0.26144c-0.6698,0.21658 -1.4763,0.58474 -2.22222,1.04575c-0.55598,0.34362 -1.42229,0.81725 -2.22222,1.17647c-0.64217,0.28837 -1.42229,0.55581 -2.22222,0.91503c-0.64216,0.28837 -1.17647,0.52288 -1.69935,0.78431c-0.52288,0.26144 -1.04575,0.52288 -1.43791,0.65359c-0.39216,0.13072 -0.72538,0.3863 -1.17647,0.52288c-0.37533,0.11364 -0.7757,0.14958 -1.04575,0.26144c-0.3819,0.15819 -0.52288,0.13072 -0.78431,0.13072c-0.13072,0 -0.26144,0 -0.39216,0c-0.26144,0 -0.26144,0 -0.52288,0c-0.13072,0 -0.13072,0.13072 -0.26144,0.13072c-0.13072,0 -0.13072,0 -0.13072,0c0.39216,-0.13072 0.90003,-0.21098 2.0915,-0.39216c1.55618,-0.23663 3.66013,-0.52288 5.88235,-0.91503c2.22222,-0.39216 4.1748,-0.81178 5.88235,-1.30719c1.4314,-0.41529 2.23161,-0.61323 2.87582,-0.78431c0.39952,-0.1061 0.66222,-0.24545 0.91503,-0.39216c0.40764,-0.23656 0.65709,-0.36212 0.78431,-0.39216c0.28448,-0.06716 0.26144,-0.13072 0.39216,-0.26144c0.13072,-0.13072 0.2384,-0.19428 0.52288,-0.26144c0.12722,-0.03003 0.14067,-0.0807 0.26144,-0.13072c0.17079,-0.07074 0.26144,-0.13072 0.26144,-0.13072c-0.52287,0 -1.04967,-0.06389 -1.56863,0c-0.53493,0.06585 -1.05115,0.24147 -1.56863,0.39216c-0.39688,0.11557 -0.91503,0.39216 -1.30719,0.52288c-0.39216,0.13072 -1.02035,0.45077 -1.56863,0.65359c-0.50549,0.18699 -1.04575,0.52288 -1.56863,0.78431c-0.52288,0.26144 -1.14337,0.57142 -1.69935,0.91503c-0.49728,0.30734 -1.14336,0.57142 -1.69935,0.91503c-0.49728,0.30734 -1.05617,0.503 -1.56863,0.78431c-0.66816,0.36679 -0.90764,0.41147 -1.56863,0.65359c-0.38815,0.14218 -0.91841,0.35028 -1.17647,0.39216c-0.40803,0.06621 -0.7948,0.17134 -1.17647,0.26144c-0.28448,0.06716 -0.49984,0.19428 -0.78431,0.26144c-0.25444,0.06007 -0.4828,0.05997 -0.65359,0.13072c-0.24154,0.10005 -0.39216,0.13072 -0.52288,0.13072c-0.13072,0 -0.27139,-0.05002 -0.39216,0c-0.17079,0.07074 -0.26144,0.13072 -0.39216,0.13072c-0.26144,0 -0.39216,0.13072 -0.65359,0.13072c-0.39216,0 -0.78431,0 -1.04575,0c-0.26144,0 -0.52288,0 -0.65359,0c-0.13072,0 -0.13072,0 -0.13072,0c0.13072,0 0.52288,0 0.91503,0c0.65359,0 1.17647,0 1.96078,0c0.91503,0 2.09269,0.00917 3.13725,-0.13072c0.91614,-0.12269 1.96668,-0.24162 2.87582,-0.52288c1.18471,-0.36651 1.9781,-0.47432 3.13725,-0.91503c0.93054,-0.35379 1.68213,-0.5606 2.22222,-0.78431c0.3819,-0.15819 0.79574,-0.2345 1.43791,-0.52288c0.53329,-0.23948 0.99967,-0.51928 1.56863,-0.65359c0.38167,-0.0901 0.77161,-0.16003 1.04575,-0.26144c0.50549,-0.18699 0.91503,-0.26144 1.30719,-0.39216c0.39216,-0.13072 0.76844,-0.19522 1.17647,-0.26144c0.38709,-0.06282 0.52288,0 0.78432,0c0,0 0.13072,0 0.13072,0c-0.13072,0 -0.52287,0.13072 -1.04575,0.13072c-0.65359,0 -1.70799,-0.04414 -2.48366,0.13072c-0.92835,0.20928 -1.96078,0.65359 -3.00654,1.04575c-1.04575,0.39216 -2.0827,0.80552 -3.00654,1.17647c-1.03643,0.41617 -1.97221,0.62666 -2.61438,0.91503c-0.79993,0.35922 -1.57905,0.63372 -2.0915,0.91503c-0.66816,0.36679 -1.30719,0.65359 -1.83007,0.91503c-0.52288,0.26144 -1.19386,0.4666 -1.69935,0.65359c-0.27414,0.10141 -0.78431,0.26144 -1.04575,0.39216c-0.26144,0.13072 -0.52288,0.26144 -0.78431,0.26144c-0.13072,0 -0.26144,0 -0.39216,0c0,0 0.00127,-0.10496 0.26144,-0.13072c0.66329,-0.06568 2.08399,-0.44023 4.44444,-0.78431c3.1286,-0.45606 5.75718,-0.74391 8.75817,-1.17647c2.48871,-0.35872 4.56076,-0.84722 6.14379,-1.17647c0.77847,-0.16191 2.35624,-0.50736 3.00654,-0.65359c0.52584,-0.11824 0.76844,-0.19522 1.17647,-0.26144c0.25806,-0.04188 0.39216,0 0.52288,0c0.13072,0 0.13072,0 0.13072,0c-0.13072,0 -0.78431,0 -1.69935,0.13072c-0.91503,0.13072 -2.10672,0.18251 -3.66013,0.52288c-1.45589,0.319 -2.88201,0.76459 -4.57516,1.30719c-1.5746,0.5046 -3.26238,1.1944 -5.75163,1.96078c-1.30433,0.40157 -2.6002,0.82975 -3.79085,1.17647c-1.03495,0.30138 -1.68462,0.57212 -2.48366,0.78431c-0.64421,0.17108 -1.17647,0.39216 -1.56863,0.52288c-0.39216,0.13072 -0.79131,0.20137 -1.04575,0.26144c-0.28448,0.06716 -0.52288,0.13072 -0.78431,0.13072c-0.13072,0 -0.26144,0 -0.26144,0c0,0 0.26144,-0.13072 0.65359,-0.26144c0.39216,-0.13072 0.92508,-0.22633 1.43791,-0.39216c0.6698,-0.21658 1.70334,-0.49087 2.87582,-0.65359c0.78758,-0.1093 1.70736,-0.36923 2.48366,-0.65359c0.66099,-0.24213 1.58913,-0.59865 2.35294,-0.91503c0.54009,-0.22371 1.00686,-0.46582 1.69935,-0.78431c0.37555,-0.17273 0.74545,-0.3322 1.17647,-0.52288c0.49289,-0.21804 1.02853,-0.29916 1.56863,-0.52288c0.3819,-0.15819 0.94501,-0.30484 1.43791,-0.52288c0.43102,-0.19067 0.81343,-0.4868 1.30719,-0.91503c0.13966,-0.12112 0.80513,-0.47198 1.17647,-0.65359c0.42339,-0.20707 0.87653,-0.43741 1.17647,-0.65359c0.23712,-0.17091 0.49984,-0.19428 0.78431,-0.26144c0.25444,-0.06007 0.36912,-0.06356 0.65359,-0.13072c0.12722,-0.03003 0.26144,0 0.26144,0c0.13072,0 0.26144,0 0.39216,0c0.13072,0 0.13072,0.13072 0.13072,0.13072c0,0.13072 0,0.26144 0,0.39216c0,0.13072 -0.19872,0.30375 -0.39216,0.52288c-0.31192,0.35333 -0.77958,0.53802 -1.17647,0.65359c-0.51748,0.15069 -1.04913,0.35028 -1.30719,0.39216c-1.2241,0.19864 -1.96078,0.65359 -2.7451,1.04575c-1.04575,0.52288 -1.98278,0.99148 -3.00654,1.43791c-1.07172,0.46734 -1.71126,0.7576 -2.61438,1.17647c-0.79549,0.36895 -1.46981,0.67468 -2.0915,0.91503c-0.71094,0.27485 -1.43791,0.65359 -1.96078,0.91503c-0.52288,0.26144 -1.00689,0.46292 -1.43791,0.65359c-0.49289,0.21804 -1.05082,0.32934 -1.43791,0.39216c-0.40803,0.06621 -0.78431,0.26144 -1.17647,0.26144c-0.26144,0 -0.52288,0.13072 -0.78431,0.13072c-0.13072,0 -0.4828,0.05997 -0.65359,0.13072c-0.24154,0.10005 -0.52288,0 -0.78431,0c-0.26144,0 -0.39216,0.13072 -0.52288,0.13072c0,0 0.11686,-0.06351 1.17647,-0.26144c1.03597,-0.19351 2.09648,-0.21872 3.39869,-0.39216c1.57634,-0.20995 2.9946,-0.44343 4.57516,-0.78431c1.42864,-0.30811 2.37304,-0.45267 3.39869,-0.78431c0.6698,-0.21658 1.46981,-0.41324 2.0915,-0.65359c0.71094,-0.27485 1.43791,-0.78431 2.0915,-1.04575c0.6536,-0.26144 1.19373,-0.49089 1.69935,-0.78431c0.40764,-0.23656 0.76883,-0.41703 1.17647,-0.65359c0.25281,-0.14671 0.37667,-0.15559 0.78431,-0.39216c0.25281,-0.14671 0.39216,-0.13072 0.65359,-0.26144c0.26144,-0.13072 0.52987,-0.20137 0.78431,-0.26144c0.28448,-0.06716 0.39216,-0.13072 0.39216,-0.13072c0,0 0,0 -0.13072,0c-0.39216,0 -0.91758,-0.05152 -1.43791,0c-0.6633,0.06568 -1.30719,0.26144 -1.83006,0.39216c-0.52288,0.13072 -1.10735,0.58285 -1.96078,0.78431c-0.25444,0.06007 -0.78431,0.39216 -2.0915,0.91503c-0.65359,0.26144 -1.31937,0.62701 -2.48366,1.17647c-0.79302,0.37424 -1.68519,0.8099 -2.61438,1.30719c-0.77313,0.41377 -1.43791,0.78431 -2.22222,1.17647c-0.78431,0.39216 -1.56863,0.65359 -2.22222,0.91503c-0.65359,0.26144 -1.29514,0.45702 -1.83007,0.52288c-0.38922,0.04792 -1.04575,0.13072 -1.17647,0.13072c-0.39216,0 -0.63056,0.06356 -0.91503,0.13072c-0.25444,0.06007 -0.26144,0 -0.52288,0c-0.13072,0 -0.16901,0.03829 -0.26144,0.13072c-0.09243,0.09243 -0.13072,0 -0.13072,0c0,0.13072 0,0.13072 0,0.13072c0.13072,0 0.78431,0 1.69935,0c2.35294,0 4.3186,-0.05215 7.05882,-0.26144c2.49013,-0.19019 4.71263,-0.4968 6.27451,-0.91503c0.91926,-0.24616 1.8089,-0.58373 2.48366,-0.78431c0.63891,-0.18993 1.04575,-0.39216 1.56863,-0.65359c0.52287,-0.26144 1.25112,-0.74241 1.83006,-1.04575c0.36615,-0.19185 0.80513,-0.34126 1.17647,-0.52288c0.42339,-0.20707 0.65359,-0.52288 0.91503,-0.65359c0.26144,-0.13072 0.39216,-0.26144 0.52288,-0.39216c0,0 -0.00294,-0.04792 -0.39216,0c-0.53493,0.06585 -1.04575,0.26144 -1.69935,0.52288c-0.65359,0.26144 -1.31223,0.37988 -1.96078,0.65359c-1.18612,0.5006 -1.56302,0.79855 -2.87582,1.30719c-1.04143,0.4035 -1.97581,0.72405 -3.13725,1.04575c-1.19511,0.33103 -1.95371,0.67302 -3.00654,1.04575c-0.77934,0.27591 -1.42318,0.4414 -2.22222,0.65359c-0.64421,0.17108 -1.30423,0.40463 -1.83007,0.52287c-0.6503,0.14623 -1.05115,0.24147 -1.56863,0.39216c-0.39688,0.11557 -0.78431,0.26144 -1.17647,0.26144c-0.39216,0 -0.65359,0.13072 -0.91503,0.13072c-0.26144,0 -0.39915,0.07065 -0.65359,0.13072c-0.28448,0.06716 -0.52637,0.10069 -0.65359,0.13072c-0.28448,0.06716 -0.52288,0.26144 -0.78431,0.26144c-0.13072,0 -0.39216,0.13072 -0.52288,0.13072c0,0 0.0035,0.03003 0.13072,0c0.28448,-0.06716 0.64117,-0.30219 1.43791,-0.52288c1.16144,-0.3217 2.63637,-0.59932 3.66013,-1.04575c1.07172,-0.46734 1.96824,-0.90063 2.48366,-1.17647c0.92919,-0.49729 1.30719,-0.78431 2.0915,-1.17647c0.52288,-0.26144 1.06657,-0.47198 1.43791,-0.65359c0.42339,-0.20707 0.78431,-0.52288 1.04575,-0.65359c0.52288,-0.26144 0.9427,-0.61623 1.30719,-0.91503c0.42889,-0.35161 0.65359,-0.52288 1.04575,-0.78431c0.39216,-0.26144 0.7948,-0.30206 1.17647,-0.39216c0.28448,-0.06716 0.78431,-0.26144 1.43791,-0.39216c0.65359,-0.13072 1.43949,-0.25081 2.35294,-0.39216c0.78578,-0.12159 1.5632,-0.19598 2.7451,-0.26144c0.6526,-0.03614 1.17647,0 1.56863,0c0.39216,0 0.52288,0 0.65359,0c0,0 0.06872,0.01952 0,0.13072c-0.15367,0.24864 -0.65063,0.27391 -1.17647,0.39216c-0.6503,0.14623 -1.31037,0.19703 -1.96078,0.26144c-0.6633,0.06568 -1.04575,0.39216 -1.69935,0.65359c-0.65359,0.26144 -1.17647,0.52287 -1.56863,0.91503c-0.52287,0.52287 -0.87969,0.94495 -1.43791,1.56863c-0.49316,0.55099 -1.28748,1.07426 -2.22222,1.69935c-1.02511,0.68552 -2.22222,1.17647 -3.39869,1.69935c-1.17647,0.52287 -2.20417,0.84646 -3.00654,1.04575c-0.77169,0.19167 -1.44331,0.24147 -1.96078,0.39216c-0.39688,0.11557 -0.78769,0.08884 -1.04575,0.13072c-0.40803,0.06621 -0.65359,0.13072 -0.91503,0.13072c-0.26144,0 -0.36912,0.06356 -0.65359,0.13072c-0.12722,0.03003 -0.13072,0 -0.13072,0c0,0 0.26144,0 1.56863,-0.26144c0.65359,-0.13072 4.85308,-0.44532 8.10458,-1.17647c3.68086,-0.8277 6.06039,-1.56805 8.75817,-2.61438c1.20031,-0.46554 2.31529,-0.91263 3.00654,-1.04575c0.38508,-0.07416 0.52287,0 0.52287,0c0,0 -0.14097,-0.02747 -0.52287,0.13072c-0.54009,0.22371 -1.03695,0.41336 -1.96078,0.78431c-1.03643,0.41617 -3.41559,0.98606 -5.35948,1.56863c-1.97985,0.59335 -3.77623,1.34345 -5.35948,1.96078c-1.4255,0.55582 -2.48366,1.04575 -3.26797,1.30719c-0.78431,0.26144 -1.34771,0.43627 -1.69935,0.65359c-0.31451,0.19438 -0.39216,0.26144 -0.52288,0.39216c0,0 0,0 0.13072,0c0.13072,0 0.38782,-0.02395 1.04575,-0.13072c1.04028,-0.16882 2.49567,-0.47763 4.05229,-0.91503c2.10955,-0.59277 3.04131,-0.9332 4.05229,-1.30719c0.82242,-0.30423 1.59176,-0.568 2.22222,-0.78431c0.55295,-0.18972 1.07007,-0.35197 1.30719,-0.52288c0.14997,-0.10809 0.16901,-0.03829 0.26144,-0.13072c0.09243,-0.09243 0.26144,-0.26144 0.52287,-0.39216c0.26144,-0.13072 0.65359,-0.26144 0.78432,-0.26144c0.13072,0 0.26144,0 0.26144,0.13072c0,0 -0.11847,0.14424 -0.26144,0.26144c-0.36449,0.29881 -0.89142,0.55183 -1.04575,0.65359c-0.58768,0.38751 -0.88328,0.52117 -1.69935,0.65359c-0.51612,0.08376 -1.05514,0.09036 -1.69935,0.26144c-0.39952,0.1061 -0.80422,0.16139 -1.04575,0.26144c-0.17079,0.07075 -0.13072,0.13072 -0.26144,0.26144c0,0 0,0.13072 0,0.13072c0,0.13072 0.13072,0.13072 0.26144,0.13072c0.26144,0 0.52288,0 0.78431,0c0.65359,0 1.17647,0 2.22222,0c0.65359,0 1.05275,-0.07065 1.30719,-0.13072c0.28448,-0.06716 0.26144,-0.13072 0.39216,-0.13072c0,0 -0.13633,-0.03788 -0.26144,0c-0.45109,0.13658 -0.78432,0.52288 -1.17647,0.65359c-0.39216,0.13072 -0.63055,0.19428 -0.91503,0.26144c-0.12722,0.03003 -0.26144,0 -0.39216,0l0,0.13072l-0.13072,0" id="svg_5" stroke="#000" fill="none"/>
 </g>
</svg>